<svg xmlns="http://www.w3.org/2000/svg" viewBox="0 0 64 64" width="64" height="64">
  
  <rect width="64" height="64" rx="14" fill="#D97706"></rect>
  <g fill="#15120E">
    
    <rect x="16" y="14" width="7" height="36" rx="1.5"></rect>
    
    <rect x="12" y="14" width="15" height="3.5" rx="1"></rect>
    
    <rect x="12" y="46.5" width="15" height="3.5" rx="1"></rect>
    
    <path d="M23 14 h10 a8 8 0 0 1 0 16 h-10 Z M23 18 h9 a4 4 0 0 1 0 8 h-9 Z"></path>
    
    <path d="M23 30 h12 a10 10 0 0 1 0 20 h-12 Z M23 34 h11 a6 6 0 0 1 0 12 h-11 Z"></path>
  </g>
  
  <circle cx="46" cy="18" r="3.5" fill="#15120E"></circle>
</svg>